# xmcd CD database file generated by Grip 3.2.0
# 
# Track frame offsets:
#       150
#       12422
#       24500
#       38185
#       50692
#       64452
#       75190
#       89320
#       100582
#       113922
#       136240
#       157207
#       169125
#       182492
#       195072
#       215832
#       225067
#       237430
#       255852
#       272847
# 
# Disc length: 3870 seconds
# 
# Revision: 5
# Processed by: cddbd v1.5.2PL0 Copyright (c) Steve Scherf et al.
# Submitted via: Grip 3.2.0
# 
DISCID=fe0f1c14
DTITLE=Various Artist - The Best Of The Charly Blues Masterworks Series [CD2]
DYEAR=1992
DGENRE=Blues
TTITLE0=Billy Boy Arnold - I Wish You Would
TTITLE1=John Lee Hooker - Everybody Rockin'
TTITLE2=Eddie Taylor - Bad Boy
TTITLE3=Jimmy Witherspoon - Everyday (I Have The blues)
TTITLE4=Howlin Wolf - Smokestack Lightnin'
TTITLE5=Elmore James - One Way Out
TTITLE6=Otis Rush - I Can't Quit You Baby
TTITLE7=Frank Frost - Jelly Roll King
TTITLE8=Magic Sam - All Your Love
TTITLE9=Luther Allison - Sweet Home Chicago
TTITLE10=Muddy Waters, Willie Dixon and Buddy Guy - Wee, Wee Baby
TTITLE11=Buddy Guy - My Love Is Real
TTITLE12=John Lee Hooker - One Bourbon, One Scotch, One Beer
TTITLE13=Muddy Waters - Can't Get No Grindin' (What's The Matter With The M
TTITLE13=ill)
TTITLE14=Lightning Hopkins - Morning Blues
TTITLE15=Clarence "Gatemouth" Brown - Gate's Salty Blues
TTITLE16=Eric Clapton and Howlin Wolf - Highway 49
TTITLE17=Albert King - Don't Burn Down The Bridge
TTITLE18=Robert Cray - Who's Been Talkin'
TTITLE19=Champion Jack Dupree - My Baby's Coming Home
EXTD=
EXTT0=
EXTT1=
EXTT2=
EXTT3=
EXTT4=
EXTT5=
EXTT6=
EXTT7=
EXTT8=
EXTT9=
EXTT10=
EXTT11=
EXTT12=
EXTT13=
EXTT14=
EXTT15=
EXTT16=
EXTT17=
EXTT18=
EXTT19=
PLAYORDER=
